<svg width="128" height="128" viewBox="0 0 128 128" fill="none" xmlns="http://www.w3.org/2000/svg">
<rect width="128" height="128" rx="16" fill="black"/>
<path d="M44.792 91.14C41.2933 91.14 38.136 90.436 35.32 89.028C32.5467 87.62 30.2853 85.572 28.536 82.884L34.488 77.252C35.896 78.916 37.5813 80.2813 39.544 81.348C41.5493 82.4147 43.4053 82.948 45.112 82.948C46.904 82.948 48.3333 82.564 49.4 81.796C50.4667 81.028 51 80.0253 51 78.788C51 77.8067 50.8293 77.0387 50.488 76.484C50.1893 75.9293 49.528 75.3533 48.504 74.756C47.5227 74.116 45.816 73.1773 43.384 71.94C40.1413 70.3187 37.6027 68.8253 35.768 67.46C33.9333 66.0947 32.5467 64.6013 31.608 62.98C30.712 61.316 30.264 59.3533 30.264 57.092C30.264 54.7453 30.904 52.6547 32.184 50.82C33.464 48.9853 35.256 47.5773 37.56 46.596C39.9067 45.572 42.5947 45.06 45.624 45.06C48.9947 45.06 51.9387 45.6787 54.456 46.916C57.016 48.1533 58.8933 49.8813 60.088 52.1L53.624 56.964C51.5333 54.4893 49.0373 53.252 46.136 53.252C44.344 53.252 42.9573 53.5933 41.976 54.276C41.0373 54.916 40.568 55.8333 40.568 57.028C40.568 57.796 40.8453 58.5 41.4 59.14C41.9547 59.78 42.9147 60.5053 44.28 61.316C45.688 62.084 47.7787 63.108 50.552 64.388C53.24 65.6253 55.352 66.884 56.888 68.164C58.424 69.4013 59.512 70.8307 60.152 72.452C60.8347 74.0307 61.176 75.9507 61.176 78.212C61.176 80.8147 60.4933 83.0973 59.128 85.06C57.8053 86.98 55.9067 88.4733 53.432 89.54C50.9573 90.6067 48.0773 91.14 44.792 91.14ZM66.7835 45.7H82.2715C87.6475 45.7 91.7222 46.9373 94.4955 49.412C97.3115 51.844 98.7195 55.4493 98.7195 60.228C98.7195 65.2627 97.2902 69.0813 94.4315 71.684C91.6155 74.2867 87.4555 75.588 81.9515 75.588H77.0875V90.5H66.7835V45.7ZM82.6555 67.46C84.6182 67.46 86.1115 66.8627 87.1355 65.668C88.1595 64.4733 88.6715 62.7453 88.6715 60.484C88.6715 58.308 88.1168 56.6653 87.0075 55.556C85.9408 54.4467 84.3408 53.892 82.2075 53.892H77.0875V67.46H82.6555Z" fill="white"/>
</svg>
